<?xml version="1.0" encoding="utf-8"?>
<!-- Generator: Adobe Illustrator 16.0.0, SVG Export Plug-In . SVG Version: 6.00 Build 0)  -->
<!DOCTYPE svg PUBLIC "-//W3C//DTD SVG 1.1//EN" "http://www.w3.org/Graphics/SVG/1.1/DTD/svg11.dtd">
<svg version="1.1" id="Layer_1" xmlns="http://www.w3.org/2000/svg" xmlns:xlink="http://www.w3.org/1999/xlink" x="0px" y="0px"
	 width="256px" height="256px" viewBox="0 0 256 256" enable-background="new 0 0 256 256" xml:space="preserve">
<path id="base_light" fill="#17252C" d="M256,256c0,0-64.051,0-128.077,0c-33.933,0-66.471-13.479-90.458-37.466
	C13.479,194.547,0,162.01,0,128.077c0-0.013,0-0.013,0-0.026c0-33.958,13.491-66.534,37.504-90.547
	C61.517,13.491,94.093,0,128.051,0c0.192,0,0.384,0,0.563,0C198.976,0,256,57.024,256,127.386C256,191.591,256,256,256,256z"/>
<path fill="#00C6D2" d="M145.812,93.444c-1.94-1.94-4.561-3.023-7.299-3.028c-3.75,0.012-8.613,0-8.613,0s-7.447,0.006-12.392,0.006
	c-2.75-0.005-5.389,1.095-7.334,3.041l-35.285,35.283c-2.39,2.39-3.732,5.626-3.732,8.997c0.006,3.378,1.343,6.606,3.732,8.997
	l41.412,41.412c6.466,6.466,16.935,6.466,23.4,0l43.127-43.129c4.022-4.021,4.022-10.539,0-14.562L145.812,93.444z"/>
<path fill="#FFFFFF" d="M107.352,75.687c4.052,4.052,4.057,10.624,0.006,14.675l-37.153,37.153c-1.934,1.935-4.549,3.01-7.276,3.017
	c-2.727-0.007-5.335-1.089-7.258-3.011L46.65,118.5c-1.952-1.952-3.059-4.607-3.058-7.376c0.006-2.774,1.106-5.424,3.064-7.382
	l36.84-36.84c1.993-1.993,4.708-3.123,7.53-3.118c2.833-0.006,5.543,1.118,7.542,3.118L107.352,75.687z"/>
<path fill="#FFFFFF" d="M98.425,105.209l14.788,14.788l4.383-4.384c1.928-1.929,4.537-3.011,7.27-3.011
	c4.283,0,10.854,0.005,15.143,0c2.727-0.006,5.347,1.089,7.275,3.017l35.349,35.349c3.312,3.312,3.312,8.685,0,11.996l-0.006,0.006
	c-1.544,1.544-3.637,2.407-5.827,2.407c-2.183,0.006-4.282-0.863-5.821-2.402l-8.376-8.375l-1.478,1.479l8.257,8.257
	c3.284,3.284,3.283,8.596,0,11.879l-0.006,0.006c-3.254,3.254-8.518,3.254-11.771,0l-8.312-8.311l-1.478,1.479l8.4,8.399
	c1.531,1.532,2.396,3.625,2.401,5.797c-0.006,2.17-0.87,4.265-2.401,5.797l-0.225,0.226c-1.531,1.531-3.626,2.396-5.809,2.412
	c-2.183-0.017-4.271-0.873-5.808-2.41l-8.388-8.39l-1.479,1.479l8.34,8.342c3.236,3.234,3.236,8.475,0,11.71l-0.013,0.013
	c-3.294,3.295-8.631,3.295-11.931-0.007L73.27,145.126c-4.075-4.077-4.075-10.688,0-14.765L98.425,105.209L98.425,105.209z"/>
<g>
	<path fill="#00C6D2" d="M157.642,66.695c4.052-4.051,10.612-4.046,14.658,0l37.118,37.118c4.039,4.039,4.04,10.583,0,14.623
		l-8.855,8.854c-1.988,1.987-4.685,3.101-7.493,3.106c-2.804,0-5.508-1.119-7.494-3.106l-36.964-36.964
		c-4.028-4.028-4.028-10.57,0.006-14.604l9.026-9.026L157.642,66.695L157.642,66.695z"/>
	<path fill="#00C6D2" d="M97.059,150.939c3.206-3.207,3.206-8.4,0-11.605l-0.006-0.008c-3.324-3.325-8.713-3.33-12.043,0
		l-11.783,11.783c-3.235,3.235-3.242,8.48-0.012,11.713l0.118,0.119c3.242,3.24,8.489,3.233,11.724,0l12.002-12.004V150.939z"/>
	<path fill="#00C6D2" d="M110.208,164.408c3.295-3.295,3.295-8.631,0-11.926l-0.023-0.023c-1.543-1.544-3.649-2.419-5.838-2.419
		c-2.201,0-4.307,0.874-5.85,2.419l-11.925,11.926c-3.26,3.26-3.253,8.529,0,11.783l0.13,0.131c1.532,1.531,3.621,2.401,5.809,2.401
		c2.177,0,4.271-0.864,5.809-2.401L110.208,164.408L110.208,164.408z"/>
	<path fill="#00C6D2" d="M123.565,177.67c3.271-3.271,3.271-8.561,0-11.83l-0.005-0.006c-1.568-1.568-3.69-2.449-5.909-2.443
		c-2.218-0.006-4.342,0.875-5.91,2.443l-11.824,11.824c-3.271,3.271-3.271,8.584,0,11.854l0.006,0.006
		c3.259,3.26,8.535,3.26,11.795,0L123.565,177.67L123.565,177.67z"/>
	<path fill="#00C6D2" d="M136.98,190.871c3.212-3.211,3.212-8.404,0-11.616l-0.012-0.012c-1.598-1.597-3.756-2.49-6.004-2.489
		c-2.26,0-4.419,0.893-6.009,2.484l-11.771,11.771c-3.247,3.246-3.252,8.519,0,11.771l0.147,0.15
		c3.2,3.198,8.401,3.192,11.601-0.008L136.98,190.871z"/>
	<path fill="#00C6D2" d="M121.405,111.805c1.55-1.55,2.425-3.656,2.426-5.856c-0.006-2.194-0.87-4.3-2.426-5.856l-2.94-2.939
		c-3.312-3.312-8.671-3.312-11.977-0.006l-9.465,9.463c-1.591,1.592-2.484,3.75-2.479,5.993c-0.005,2.253,0.887,4.401,2.479,5.992
		l3.017,3.017c3.194,3.194,8.365,3.195,11.553,0.006L121.405,111.805z"/>
</g>
</svg>
