<?xml version="1.0" encoding="utf-8"?>
<!-- Generator: Adobe Illustrator 16.0.0, SVG Export Plug-In . SVG Version: 6.00 Build 0)  -->
<!DOCTYPE svg PUBLIC "-//W3C//DTD SVG 1.1//EN" "http://www.w3.org/Graphics/SVG/1.1/DTD/svg11.dtd">
<svg version="1.1" xmlns="http://www.w3.org/2000/svg" xmlns:xlink="http://www.w3.org/1999/xlink" x="0px" y="0px" width="200px"
	 height="200px" viewBox="0 0 200 200" enable-background="new 0 0 200 200" xml:space="preserve">
<g id="interpreter" display="none">
	<g display="inline">
		<circle fill="#17252C" cx="100" cy="100" r="100"/>
		<path fill="#FFFFFF" stroke="#00C6D2" stroke-width="2" stroke-linejoin="round" stroke-miterlimit="10" d="M126,62H76
			c-13.807,0-27,10.193-27,24v30c0,13.807,13.193,26,27,26h29.811L125,158.643v-17.668c14-0.525,24-11.503,24-24.975V86
			C149,72.193,139.807,62,126,62z"/>
	</g>
</g>
<g id="medical" display="none">
	<g display="inline">
		<circle fill="#17252C" cx="100" cy="100" r="100"/>
		<polygon fill="#FFFFFF" stroke="#00C6D2" stroke-width="2" stroke-linejoin="round" stroke-miterlimit="10" points="150,83 
			117,83 117,50 83,50 83,83 50,83 50,117 83,117 83,150 117,150 117,117 150,117 		"/>
	</g>
</g>
<g id="volunteer" display="none">
	<g display="inline">
		<circle fill="#17252C" cx="100" cy="100" r="100"/>
		<g>
			<path fill="#FFFFFF" stroke="#00C6D2" stroke-width="2" stroke-linejoin="round" stroke-miterlimit="10" d="M122.964,53.766
				c1.413,0,2.919,0.074,4.528,0.227c9.797,0.929,21.125,9.634,22.508,26.317v5.553c-1.285,15.968-13.706,35.663-50.001,60.373
				C63.702,121.524,51.285,101.83,50,85.862v-5.553c1.379-16.683,12.708-25.388,22.504-26.317c1.609-0.152,3.116-0.227,4.529-0.227
				c11.318,0,16.749,4.748,22.966,11.939C106.216,58.514,111.644,53.766,122.964,53.766"/>
		</g>
	</g>
</g>
<g id="legal">
	<g>
		<circle fill="#17252C" cx="100" cy="100" r="100"/>
		<g>
			<path fill="#FFFFFF" stroke="#00C6D2" stroke-width="2" stroke-linejoin="round" stroke-miterlimit="10" d="M120.959,66.032
				c-3.81-1.84-9.461-3.68-17.214-3.68c-7.753,0-11.826,2.497-11.826,6.308c0,3.942,4.599,6.307,14.06,9.198
				c14.191,4.336,24.967,9.461,24.967,22.996c0,6.965-3.811,12.352-9.593,16.031c2.497,1.84,5.782,6.176,5.782,12.089
				c0,16.031-16.82,21.025-29.041,21.025c-7.884,0-17.478-1.314-24.573-5.782l3.812-12.089c3.81,2.234,11.957,5.52,19.841,5.52
				c6.965,0,11.958-2.365,11.958-6.833c0-4.337-3.942-6.702-13.93-9.856c-13.928-4.204-26.149-9.46-26.149-22.601
				c0-5.65,3.548-12.352,10.907-16.031c-2.76-2.234-5.256-7.097-5.256-11.958C74.704,57.097,87.319,50,103.351,50
				c7.622,0,14.718,1.051,20.763,3.942L120.959,66.032z M95.992,105.06c6.045,2.234,12.484,4.073,15.506,5.65
				c2.234-1.445,3.811-4.074,3.811-6.833c0-3.811-2.628-6.964-9.067-9.461c-5.519-2.103-13.009-4.6-16.952-6.439
				c-2.759,1.445-4.73,3.811-4.73,6.833C84.56,99.146,88.108,102.3,95.992,105.06z"/>
		</g>
	</g>
</g>
</svg>
